PathFileType	4	(X/Y/Z)	E:\3-PhD\Data\MocapData\ElaboratedData\009\pre\dynamicElaborations\Run_baseline2\Run_baseline2.trc
DataRate	CameraRate	NumFrames	NumMarkers	Units	OrigDataRate	DataStartFrame
200	200	4	54	mm	200	739
Frame#	Time	FHD			LBHD			RBHD			C7			T10			CLAV			LSHO			LUUPA			LMUPA			LDUPA			LLEP			LMEP			LRAD			LUL			LRFIN			RSHO			RUPA1			RMUPA			RDUPA			RLEP			RMEP			RRAD			RUL			RUFIN			RASI			USACR			LSACR			RSACR			LTHI1			LTHI2			LTHI3			LTHI4			LTIB1			LTIB2			LTIB3			LTIB4			LLMAL			LHEE			LMT1			LMT2			RTHI			RTHI2			RTHI3			RTHI4			RLFC			RTIB1			RTIB2			RTIB3			RTIB4			RLMAL			RHEE			RMT1			RMT2			RMT5		
		X1	Y1	Z1	X2	Y2	Z2	X3	Y3	Z3	X4	Y4	Z4	X5	Y5	Z5	X6	Y6	Z6	X7	Y7	Z7	X8	Y8	Z8	X9	Y9	Z9	X10	Y10	Z10	X11	Y11	Z11	X12	Y12	Z12	X13	Y13	Z13	X14	Y14	Z14	X15	Y15	Z15	X16	Y16	Z16	X17	Y17	Z17	X18	Y18	Z18	X19	Y19	Z19	X20	Y20	Z20	X21	Y21	Z21	X22	Y22	Z22	X23	Y23	Z23	X24	Y24	Z24	X25	Y25	Z25	X26	Y26	Z26	X27	Y27	Z27	X28	Y28	Z28	X29	Y29	Z29	X30	Y30	Z30	X31	Y31	Z31	X32	Y32	Z32	X33	Y33	Z33	X34	Y34	Z34	X35	Y35	Z35	X36	Y36	Z36	X37	Y37	Z37	X38	Y38	Z38	X39	Y39	Z39	X40	Y40	Z40	X41	Y41	Z41	X42	Y42	Z42	X43	Y43	Z43	X44	Y44	Z44	X45	Y45	Z45	X46	Y46	Z46	X47	Y47	Z47	X48	Y48	Z48	X49	Y49	Z49	X50	Y50	Z50	X51	Y51	Z51	X52	Y52	Z52	X53	Y53	Z53	X54	Y54	Z54	

774	3.865000	104.237122	1459.519077	-137.159280	-94.043924	1447.347279	-108.787105	7.538464	1441.946481	-33.345559	-115.610386	1320.354033	-67.215067	-316.394486	1043.714968	-7.474506	-39.142760	1185.053656	-118.270038	-109.520643	1242.661023	-243.003287	-295.684661	1169.003976	-290.964568	-292.754752	1119.649298	-290.655988	-352.921516	1130.248137	-293.900423	-457.477042	1065.275205	-275.378134	-459.124910	1064.568748	-200.465267	-391.233023	810.062775	-250.785865	-464.844798	798.068177	-255.148665	-381.450424	738.194834	-286.517735	4.588286	1244.354209	43.076152	-0.539166	1096.329646	139.860356	17.575714	1061.982818	113.067455	1.518733	1032.424243	164.012078	0.624746	894.824199	177.452208	-67.088444	878.121792	143.542547	87.231476	971.975196	-56.189940	126.715249	916.609283	-49.907475	150.867397	1007.786465	-87.633406	-166.859856	866.426683	112.624761	-358.082256	958.482282	21.797699	-375.314735	921.225793	10.240158	-353.271652	939.198471	61.837204	-233.526378	615.483731	-163.647865	-160.662963	592.518531	-203.028919	-138.812138	633.234495	-217.402099	-123.066162	545.166739	-189.225408	124.065864	389.780731	-140.554898	75.536771	324.032034	-108.515036	115.445979	337.705685	-118.784473	171.421177	303.529478	-58.616405	186.821630	179.027716	49.810467	175.109581	176.181553	150.678614	350.881312	194.026948	14.248242	325.760072	167.482236	-15.733427	-272.258178	693.243507	286.797958	-261.500569	631.063143	304.473096	-235.892708	613.999281	294.245143	-324.687772	578.494495	332.945015	-359.915061	478.568817	368.807795	-464.956874	289.813033	436.459003	-549.902242	301.250966	504.973302	-523.244181	263.616852	493.715343	-556.687028	216.698130	488.454036	-649.926515	203.816265	559.920077	-739.617920	204.143506	539.394361	-582.839215	54.977933	521.881680	-575.292733	59.537904	561.741781	-614.938595	71.519856	621.412949	
775	3.870000	126.348544	1462.454219	-149.501600	-71.991958	1450.914657	-121.530033	29.475029	1445.154268	-45.900741	-93.045676	1322.757181	-78.209016	-290.802144	1045.222966	-14.659733	-16.619924	1188.655574	-131.313854	-90.086605	1246.672808	-253.964379	-276.629224	1173.125117	-298.989037	-273.456697	1123.775656	-299.632826	-333.723693	1134.251886	-301.076632	-437.278403	1067.891349	-281.406334	-436.710727	1065.155304	-206.404303	-363.239283	814.018584	-265.271799	-436.592267	799.742129	-267.981342	-352.160189	743.299169	-303.251315	29.364791	1247.470764	29.442838	25.822346	1099.351434	126.353458	42.943247	1064.957187	99.103830	27.677454	1035.397683	150.214730	25.986742	898.107073	164.825766	-42.760563	881.823034	132.576407	106.793239	976.179329	-70.967217	146.716336	921.146210	-65.437204	169.422830	1012.372978	-103.931742	-140.129940	866.774149	102.580748	-331.663931	961.153828	14.524182	-349.394631	923.971764	3.410898	-326.100872	941.853527	54.529319	-210.265693	613.571389	-170.346464	-137.638349	589.604239	-209.638950	-115.543602	629.902927	-224.622667	-100.283436	542.203432	-195.296206	146.883989	387.351427	-148.270252	99.667255	321.196752	-115.175269	139.184962	335.187956	-126.490392	196.760753	301.286573	-67.691290	216.121223	176.822164	40.639522	205.950632	174.445204	141.504206	380.184803	192.496199	3.464201	355.176344	165.367541	-26.070629	-247.536002	695.693371	277.444674	-238.497152	632.974563	294.651699	-213.583492	615.200568	283.987681	-303.004491	582.388362	323.922072	-341.271696	483.592896	359.729805	-449.263430	296.697524	429.413569	-533.678153	309.642072	498.384978	-507.505119	271.597079	487.236068	-541.370183	224.909057	482.590090	-634.619428	214.056638	554.365068	-723.073444	219.373907	531.980431	-578.840119	57.611414	519.912741	-570.969407	62.656955	559.531739	-610.075247	79.063255	617.623368	
776	3.875000	148.436346	1465.206778	-161.890435	-49.927721	1454.176051	-134.099051	51.507498	1448.083641	-58.397367	-70.384342	1324.978307	-89.263160	-265.394559	1046.806692	-22.136913	5.898357	1192.014643	-144.230311	-70.494028	1250.388929	-264.820965	-257.304840	1176.658651	-307.054108	-253.870041	1127.353499	-308.573861	-314.188932	1137.586031	-308.315579	-416.629056	1069.809215	-287.691937	-413.984955	1065.112784	-212.721389	-335.027277	817.731748	-279.997689	-407.984571	801.108594	-281.458645	-322.569650	748.344388	-320.265781	54.075421	1250.298856	15.998697	51.876958	1102.176965	113.174709	67.994157	1067.679947	85.602968	53.425459	1038.221893	136.858908	50.719866	901.323347	153.058815	-18.965492	885.480068	122.386349	126.670196	979.008490	-84.766828	166.806767	924.217657	-79.639138	188.554215	1015.187978	-119.130968	-113.669659	867.180566	92.204760	-305.507177	963.874010	6.866769	-323.700415	926.775578	-3.833780	-299.263730	944.544184	46.818688	-187.090162	611.343860	-176.996258	-114.695362	586.330993	-216.131486	-92.311752	626.162341	-231.752826	-77.579149	538.926651	-201.158716	168.933454	384.412358	-155.342201	122.698264	318.131264	-121.182362	161.905352	332.225824	-133.468599	220.710787	298.485698	-75.940045	243.196716	174.190411	32.455305	234.341688	172.421817	133.283175	407.322393	189.919029	-6.074572	382.366495	162.292329	-35.183023	-222.116538	697.770384	267.813352	-214.463537	634.631448	284.559020	-190.167929	616.306278	273.466852	-279.848658	585.666741	314.660303	-320.547938	487.888390	350.441723	-431.890778	303.261080	421.992240	-515.936109	317.945611	491.137752	-490.331355	279.441238	480.174664	-524.737468	233.095801	475.987756	-618.083987	224.601307	547.846386	-704.937819	234.921595	523.166608	-573.810544	61.458778	517.083501	-565.848877	66.964841	556.487387	-604.333276	87.723945	612.628177	
777	3.880000	170.499124	1467.767232	-174.318163	-27.849725	1457.099658	-146.470750	73.644598	1450.710377	-70.824886	-47.614019	1327.014746	-100.378745	-240.200263	1048.452617	-29.901314	28.418247	1195.097690	-157.003446	-50.713479	1253.780920	-275.580570	-237.687053	1179.567531	-315.168647	-233.964121	1130.345846	-317.524443	-294.294844	1140.212413	-315.661159	-395.520305	1071.001971	-294.289968	-390.940901	1064.412052	-219.451482	-306.563039	821.181972	-294.976460	-379.006728	802.177782	-295.583342	-292.659906	753.333943	-337.571555	78.727148	1252.814000	2.754760	77.566505	1104.800512	100.380640	92.708451	1070.135668	72.620283	78.720799	1040.895590	124.014443	74.805223	904.479198	142.171376	4.306356	889.086483	112.914235	146.915532	980.420100	-97.573259	187.034802	925.749589	-92.521916	208.345636	1016.146590	-133.234494	-87.497620	867.672520	81.501310	-279.658129	966.586494	-1.140729	-298.267587	929.578987	-11.477489	-272.824928	947.211192	38.730557	-164.085382	608.883559	-183.577596	-91.932646	582.755391	-222.481161	-69.206778	622.062972	-238.771633	-55.061412	535.388844	-206.774493	190.214250	380.952970	-161.736225	144.615502	314.807150	-126.531405	183.594509	328.800797	-139.694066	243.287576	295.112033	-83.257093	267.972651	171.057717	25.353627	260.190824	170.040117	126.121076	432.220771	186.200226	-14.258951	407.243476	158.167012	-42.959129	-196.032381	699.402732	257.933432	-189.409802	635.951400	274.227364	-165.645710	617.239676	262.716874	-255.228632	588.214269	305.211348	-297.758915	491.307835	341.025641	-412.907535	309.428749	414.246775	-496.746256	326.146119	483.234913	-471.809923	287.126303	472.562986	-506.898306	241.257706	468.674866	-600.440086	235.489884	540.344491	-685.353067	250.714103	513.058745	-567.580088	66.686109	513.222070	-559.769073	72.645142	552.443418	-597.541208	97.589122	606.417141	
